<?xml version="1.0" encoding="iso-8859-1"?>
<!-- Generator: Adobe Illustrator 19.0.0, SVG Export Plug-In . SVG Version: 6.00 Build 0)  -->
<svg xmlns="http://www.w3.org/2000/svg" xmlns:xlink="http://www.w3.org/1999/xlink" version="1.1" id="Capa_1" x="0px" y="0px" viewBox="0 0 512 512" style="enable-background:new 0 0 512 512;" xml:space="preserve" width="512px" height="512px">
<g>
	<g>
		<path d="M386.338,208.393h-0.083c-0.015,0-0.03,0-0.045,0c-4.121,0-7.433,3.329-7.458,7.456c-0.024,4.141,3.355,7.519,7.498,7.544    c0.015,0,0.03,0,0.045,0c4.121,0,7.475-3.329,7.499-7.456C393.818,211.795,390.48,208.417,386.338,208.393z" fill="#FFFFFF"/>
	</g>
</g>
<g>
	<g>
		<path d="M440.26,208.392h-27.158c-4.142,0-7.5,3.358-7.5,7.5c0,4.142,3.358,7.5,7.5,7.5h27.158c4.142,0,7.5-3.358,7.5-7.5    C447.76,211.75,444.402,208.392,440.26,208.392z" fill="#FFFFFF"/>
	</g>
</g>
<g>
	<g>
		<path d="M386.293,166.203h-0.083c-4.142,0-7.458,3.358-7.458,7.5c0,4.142,3.399,7.5,7.541,7.5c4.142,0,7.5-3.358,7.5-7.5    C393.793,169.561,390.435,166.203,386.293,166.203z" fill="#FFFFFF"/>
	</g>
</g>
<g>
	<g>
		<path d="M440.26,166.203h-27.158c-4.142,0-7.5,3.358-7.5,7.5c0,4.142,3.358,7.5,7.5,7.5h27.158c4.142,0,7.5-3.358,7.5-7.5    C447.76,169.561,444.402,166.203,440.26,166.203z" fill="#FFFFFF"/>
	</g>
</g>
<g>
	<g>
		<path d="M479.861,91.589c-4.142,0-7.5,3.358-7.5,7.5v215.822c0,4.142,3.358,7.5,7.5,7.5c4.142,0,7.5-3.358,7.5-7.5V99.089    C487.361,94.947,484.003,91.589,479.861,91.589z" fill="#FFFFFF"/>
	</g>
</g>
<g>
	<g>
		<path d="M479.861,72.413c4.142,0,7.5-3.358,7.5-7.5V19.772c0-5.529-3.308-10.451-8.428-12.539    c-5.121-2.087-10.927-0.882-14.793,3.071l-18.88,19.303L419.55,3.956C416.992,1.403,413.599,0,409.988,0c-0.028,0-0.057,0-0.085,0    c-3.642,0.022-7.051,1.469-9.598,4.073l-24.973,25.534L349.623,3.956c-2.578-2.573-6.03-3.937-9.646-3.956    c-3.643,0.022-7.052,1.468-9.6,4.073l-24.973,25.534l-25.709-25.65c-2.578-2.573-6.002-3.937-9.646-3.956    c-3.643,0.022-7.052,1.468-9.6,4.073L235.542,29.54l-19.67-20.112c-3.867-3.953-9.672-5.16-14.793-3.071    c-5.12,2.087-8.429,7.01-8.429,12.539v49.746c-5.039-0.817-10.206-1.248-15.472-1.248c-53.135,0-96.364,43.229-96.364,96.364    s43.229,96.363,96.364,96.363c5.266,0,10.433-0.431,15.472-1.248v84.346h-43.561c-4.142,0-7.5,3.358-7.5,7.5    c0,4.142,3.358,7.5,7.5,7.5h97.803v30.399c0,46.711,26.086,87.439,64.461,108.383H148.021    c-59.763,0-108.383-48.62-108.383-108.383v-30.399h75.272c4.142,0,7.5-3.358,7.5-7.5c0-4.142-3.358-7.5-7.5-7.5H32.139    c-4.142,0-7.5,3.358-7.5,7.5v37.899C24.639,456.651,79.988,512,148.021,512h222.253c0.667,0,1.31-0.095,1.925-0.259    c11.907-0.766,23.596-3.247,34.847-7.406c23.437-8.663,43.522-24.323,58.085-45.287c14.542-20.935,22.229-45.209,22.229-70.199    v-39.761c0-4.142-3.358-7.5-7.5-7.5c-4.142,0-7.5,3.358-7.5,7.5v39.761c0,21.916-6.76,43.231-19.549,61.641    c-12.802,18.429-30.426,32.183-50.967,39.776c-11.253,4.16-23.006,6.384-34.971,6.675c-58.195-1.803-104.983-49.7-104.983-108.324    v-37.899c0-4.142-3.358-7.5-7.5-7.5h-46.742V255.18c17.995-6.014,33.643-17.2,45.169-31.788h61.581c4.142,0,7.5-3.358,7.5-7.5    c0-4.142-3.358-7.5-7.5-7.5h-51.841c4.416-8.412,7.626-17.551,9.395-27.189h42.445c4.142,0,7.5-3.358,7.5-7.5    c0-4.142-3.358-7.5-7.5-7.5h-40.89c0.02-0.813,0.031-1.628,0.031-2.446c0-11.41-1.998-22.361-5.655-32.527H440.26    c4.142,0,7.5-3.358,7.5-7.5c0-4.142-3.358-7.5-7.5-7.5H260.98c-11.667-20.492-30.63-36.31-53.33-43.896v-49.86l18.211,18.621    c2.568,2.626,6.006,4.073,9.68,4.073c3.673,0,7.112-1.447,9.681-4.073l24.92-25.48l25.71,25.652    c2.559,2.552,5.951,3.955,9.562,3.955c0.029,0,0.058,0,0.087,0c3.642-0.022,7.05-1.469,9.596-4.073l24.973-25.534l25.71,25.651    c2.559,2.553,5.951,3.956,9.562,3.956c0.028,0,0.057,0,0.085,0c3.643-0.022,7.051-1.468,9.598-4.072l24.973-25.534l25.71,25.651    c2.578,2.572,6,4.014,9.646,3.955c3.643-0.022,7.051-1.468,9.599-4.072l17.408-17.799v41.562    C472.361,69.055,475.719,72.413,479.861,72.413z M258.541,163.757c0,44.864-36.5,81.363-81.363,81.363    c-44.864,0-81.364-36.5-81.364-81.363c0-44.864,36.5-81.364,81.364-81.364C222.041,82.394,258.541,118.893,258.541,163.757z" fill="#FFFFFF"/>
	</g>
</g>
<g>
	<g>
		<path d="M152.448,119.351c-10.849,0-19.677,8.827-19.677,19.677c0,10.85,8.827,19.676,19.677,19.676    c10.85,0,19.676-8.827,19.676-19.676C172.124,128.178,163.297,119.351,152.448,119.351z M152.448,143.704    c-2.578,0-4.677-2.098-4.677-4.676c0-2.579,2.098-4.677,4.677-4.677s4.676,2.098,4.676,4.677    C157.124,141.607,155.026,143.704,152.448,143.704z" fill="#FFFFFF"/>
	</g>
</g>
<g>
	<g>
		<path d="M201.907,168.81c-10.849,0-19.677,8.827-19.677,19.677c0,10.85,8.827,19.676,19.677,19.676    c10.85,0,19.676-8.827,19.676-19.676S212.756,168.81,201.907,168.81z M201.907,193.163c-2.578,0-4.677-2.098-4.677-4.676    s2.098-4.677,4.677-4.677c2.579,0,4.676,2.098,4.676,4.677S204.485,193.163,201.907,193.163z" fill="#FFFFFF"/>
	</g>
</g>
<g>
	<g>
		<path d="M207.4,133.743c-2.919-2.938-7.667-2.955-10.607-0.037l-49.802,49.459c-2.939,2.919-2.955,7.668-0.037,10.607    c1.466,1.476,3.394,2.215,5.322,2.215c1.911,0,3.822-0.726,5.285-2.178l49.802-49.459    C210.302,141.431,210.318,136.683,207.4,133.743z" fill="#FFFFFF"/>
	</g>
</g>
<g>
	<g>
		<path d="M389.034,387.866c4.142,0,7.5-3.358,7.5-7.5v-22.379c0-4.142-3.358-7.5-7.5-7.5h-25.745c-4.142,0-7.5,3.358-7.5,7.5    c0,4.142,3.358,7.5,7.5,7.5h18.245v7.379h-18.245c-4.142,0-7.5,3.358-7.5,7.5v22.151c0,4.142,3.358,7.5,7.5,7.5h25.745    c4.142,0,7.5-3.358,7.5-7.5c0-4.142-3.358-7.5-7.5-7.5h-18.245v-7.151H389.034z" fill="#FFFFFF"/>
	</g>
</g>
<g>
	<g>
		<path d="M434.68,372.638h-18.245v-7.151h18.245c4.142,0,7.5-3.358,7.5-7.5c0-4.142-3.358-7.5-7.5-7.5h-25.745    c-4.142,0-7.5,3.358-7.5,7.5v22.151c0,4.142,3.358,7.5,7.5,7.5h18.245v7.379h-18.245c-4.142,0-7.5,3.358-7.5,7.5    c0,4.142,3.358,7.5,7.5,7.5h25.745c4.142,0,7.5-3.358,7.5-7.5v-22.379C442.18,375.996,438.822,372.638,434.68,372.638z" fill="#FFFFFF"/>
	</g>
</g>
<g>
	<g>
		<path d="M320.58,372.769c-0.171-0.012-0.344-0.018-0.518-0.018c-1.767,0-3.205-1.438-3.205-3.205c0-1.767,1.438-3.205,3.205-3.205    c0.967,0,1.874,0.432,2.488,1.185c2.617,3.21,7.341,3.691,10.552,1.074c3.21-2.617,3.691-7.342,1.074-10.552    c-1.812-2.223-4.081-3.945-6.614-5.09v-0.53c0-4.142-3.358-7.5-7.5-7.5c-4.142,0-7.5,3.358-7.5,7.5v0.55    c-6.303,2.865-10.705,9.206-10.705,16.569c0,9.769,7.733,17.765,17.399,18.187c0.171,0.012,0.344,0.018,0.518,0.018    c1.767,0,3.205,1.438,3.205,3.205c0,1.767-1.438,3.205-3.205,3.205c-0.967,0-1.874-0.432-2.488-1.185    c-2.617-3.21-7.341-3.691-10.552-1.074c-3.21,2.617-3.691,7.342-1.074,10.552c1.88,2.306,4.252,4.075,6.901,5.217v0.403    c0.001,4.142,3.358,7.5,7.501,7.5c4.142,0,7.5-3.358,7.5-7.5v-0.689c6.147-2.926,10.417-9.181,10.417-16.43    C337.979,381.187,330.246,373.191,320.58,372.769z" fill="#FFFFFF"/>
	</g>
</g>
<g>
	<g>
		<path d="M440.26,294.481H238.883c-4.142,0-7.5,3.358-7.5,7.5c0,4.142,3.358,7.5,7.5,7.5H440.26c4.142,0,7.5-3.358,7.5-7.5    C447.76,297.839,444.402,294.481,440.26,294.481z" fill="#FFFFFF"/>
	</g>
</g>
<g>
	<g>
		<path d="M314.4,252.292h-75.517c-4.142,0-7.5,3.358-7.5,7.5c0,4.142,3.358,7.5,7.5,7.5H314.4c4.142,0,7.5-3.358,7.5-7.5    C321.9,255.65,318.542,252.292,314.4,252.292z" fill="#FFFFFF"/>
	</g>
</g>
<g>
	<g>
		<path d="M386.293,252.292h-0.083c-4.142,0-7.458,3.358-7.458,7.5c0,4.142,3.399,7.5,7.541,7.5c4.142,0,7.5-3.358,7.5-7.5    C393.793,255.65,390.435,252.292,386.293,252.292z" fill="#FFFFFF"/>
	</g>
</g>
<g>
	<g>
		<path d="M440.26,252.292h-27.158c-4.142,0-7.5,3.358-7.5,7.5s3.358,7.5,7.5,7.5h27.158c4.142,0,7.5-3.358,7.5-7.5    C447.76,255.65,444.402,252.292,440.26,252.292z" fill="#FFFFFF"/>
	</g>
</g>
<g>
	<g>
		<path d="M382.871,72.295h-86.6c-4.142,0-7.5,3.358-7.5,7.5c0,4.142,3.358,7.5,7.5,7.5h86.6c4.142,0,7.5-3.357,7.5-7.5    C390.371,75.653,387.013,72.295,382.871,72.295z" fill="#FFFFFF"/>
	</g>
</g>
<g>
	<g>
		<path d="M350.311,91.591h-21.48c-4.142,0-7.5,3.358-7.5,7.5c0,4.142,3.358,7.5,7.5,7.5h21.48c4.142,0,7.5-3.358,7.5-7.5    C357.811,94.949,354.453,91.591,350.311,91.591z" fill="#FFFFFF"/>
	</g>
</g>
<g>
</g>
<g>
</g>
<g>
</g>
<g>
</g>
<g>
</g>
<g>
</g>
<g>
</g>
<g>
</g>
<g>
</g>
<g>
</g>
<g>
</g>
<g>
</g>
<g>
</g>
<g>
</g>
<g>
</g>
</svg>
