<?xml version="1.0"?>
<svg xmlns="http://www.w3.org/2000/svg" viewBox="-36 0 512 512.00035" width="512px" height="512px"><path d="m430 85c5.523438 0 10-4.476562 10-10v-50c0-5.523438-4.476562-10-10-10h-30v-4.5c0-5.515625-4.46875-9.992188-9.984375-10 0 0-340-.5-340.015625-.5-27.570312 0-50 22.429688-50 50v359c0 27.558594 22.414062 49.980469 49.984375 50l49.015625.070312v42.929688c0 3.363281 1.691406 6.503906 4.503906 8.351562 2.8125 1.851563 6.363282 2.164063 9.453125.832032l26.042969-11.222656s25.886719 11.152343 26.042969 11.222656c2.753906 1.1875 6.691406.988281 9.453125-.832032 2.8125-1.847656 4.503906-4.988281 4.503906-8.355468v-42.808594s210.984375.3125 211 .3125c2.648438 0 5.191406-1.054688 7.066406-2.925781 1.878906-1.875 2.933594-4.421875 2.933594-7.074219v-4.5h30c5.523438 0 10-4.480469 10-10v-50c0-5.523438-4.476562-10-10-10h-30v-20h30c5.523438 0 10-4.480469 10-10v-50c0-5.523438-4.476562-10-10-10h-30v-20h30c5.523438 0 10-4.476562 10-10v-50c0-5.523438-4.476562-10-10-10h-30v-20h30c5.523438 0 10-4.476562 10-10v-50c0-5.523438-4.476562-10-10-10h-30v-20zm-10-50v30h-20v-30zm-400 374v-359c0-13.035156 8.359375-24.160156 20-28.285156v415.570312c-11.640625-4.128906-20-15.25-20-28.285156zm139 77.800781s-16.003906-6.898437-16.042969-6.914062c-2.28125-.984375-5.40625-1.078125-7.914062 0l-16.042969 6.914062v-27.699219l40 .058594zm221-47.316406-320-.472656v-418.996094l320 .46875zm40-44.484375v30h-20v-30zm0-90v30h-20v-30zm0-90v30h-20v-30zm0-90v30h-20v-30zm0 0" fill="#FFFFFF"/><path d="m320 80s-199.0625 0-199.996094 0c-5.191406 0-10.003906 4.515625-10.003906 10v119.996094c0 5.347656 4.679688 10.003906 10 10.003906h60c5.511719 0 10-4.492188 10-10 0-5.511719-4.488281-10-10-10h-50v-100h180v100h-50c-5.511719 0-10 4.488281-10 10 0 5.507812 4.488281 10 10 10h60c5.125 0 10-4.59375 10-10 0 0 0-119.511719 0-120 0-5.164062-4.546875-10-10-10zm0 0" fill="#FFFFFF"/><path d="m220 200c-5.511719 0-10 4.488281-10 10 0 5.507812 4.488281 10 10 10 5.519531 0 10-4.492188 10-10 0-5.511719-4.480469-10-10-10zm0 0" fill="#FFFFFF"/><path d="m200 160h-40c-5.511719 0-10 4.488281-10 10 0 5.507812 4.488281 10 10 10h40c5.511719 0 10-4.492188 10-10 0-5.511719-4.488281-10-10-10zm0 0" fill="#FFFFFF"/><path d="m290 170c0-5.511719-4.492188-10-10-10h-40c-5.511719 0-10 4.488281-10 10 0 5.507812 4.488281 10 10 10h40c5.507812 0 10-4.492188 10-10zm0 0" fill="#FFFFFF"/><path d="m260 140c5.507812 0 10-4.492188 10-10 0-5.511719-4.492188-10-10-10h-80c-5.511719 0-10 4.488281-10 10 0 5.507812 4.488281 10 10 10zm0 0" fill="#FFFFFF"/></svg>
